{"title":"Lady Gaga - Applause [Music Video] 720p [Sbyky]","uid":8856611,"size":58535146,"categoryP":"video","categoryS":"music_videos","magnet":"?xt=urn:btih:c0aefdaf141ff63d6c1633a5d17c4d15b2959ef3&amp;dn=Lady+Gaga+-+Applause+%5BMusic+Video%5D+720p+%5BSbyky%5D&amp;tr=udp%3A%2F%2Ftracker.openbittorrent.com%3A80&amp;tr=udp%3A%2F%2Fopen.demonii.com%3A1337&amp;tr=udp%3A%2F%2Ftracker.coppersurfer.tk%3A6969&amp;tr=udp%3A%2F%2Fexodus.desync.com%3A6969","seeders":4,"leechers":0,"uploader":"Sbyky","files":-1,"time":1377672128,"description":"[IMG]http://yuq.me/users/18/139/JvZRHUTIkx.png[/IMG]\n\nGeneral\nComplete name                            : Lady Gaga - Applause [Music Video] 720p [Sbyky].mp4\nFormat                                   : MPEG-4\nFormat profile                           : Base Media / Version 2\nCodec ID                                 : mp42\nFile size                                : 55.8 MiB\nDuration                                 : 3mn 34s\nOverall bit rate mode                    : Variable\nOverall bit rate                         : 2 187 Kbps\nEncoded date                             : UTC 2013-08-17 21:51:45\nTagged date                              : UTC 2013-08-17 21:51:45\n\nVideo\nID                                       : 1\nFormat                                   : AVC\nFormat/Info                              : Advanced Video Codec\nFormat profile                           : &lt;a class=&quot;__cf_email__&quot; href=&quot;/cdn-cgi/l/email-protection&quot; data-cfemail=&quot;6b23020c032b2758455a&quot;&gt;[email&amp;#160;protected]&lt;/a&gt;&lt;script cf-hash='f9e31' type=&quot;text/javascript&quot;&gt;\n/* &lt;![CDATA[ */!function(){try{var t=&quot;currentScript&quot;in document?document.currentScript:function(){for(var t=document.getElementsByTagName(&quot;script&quot;),e=t.length;e--;)if(t[e].getAttribute(&quot;cf-hash&quot;))return t[e]}();if(t&amp;&amp;t.previousSibling){var e,r,n,i,c=t.previousSibling,a=c.getAttribute(&quot;data-cfemail&quot;);if(a){for(e=&quot;&quot;,r=parseInt(a.substr(0,2),16),n=2;a.length-n;n+=2)i=parseInt(a.substr(n,2),16)^r,e+=String.fromCharCode(i);e=document.createTextNode(e),c.parentNode.replaceChild(e,c)}}}catch(u){}}();/* ]]&gt; */&lt;/script&gt;\nFormat settings, CABAC                   : Yes\nFormat settings, ReFrames                : 1 frame\nCodec ID                                 : avc1\nCodec ID/Info                            : Advanced Video Coding\nDuration                                 : 3mn 34s\nBit rate                                 : 1 992 Kbps\nMaximum bit rate                         : 8 810 Kbps\nWidth                                    : 1 280 pixels\nHeight                                   : 720 pixels\nDisplay aspect ratio                     : 16:9\nFrame rate mode                          : Constant\nFrame rate                               : 23.976 fps\nColor space                              : YUV\nChroma subsampling                       : 4:2:0\nBit depth                                : 8 bits\nScan type                                : Progressive\nBits/(Pixel*Frame)                       : 0.090\nStream size                              : 50.9 MiB (91%)\nTagged date                              : UTC 2013-08-17 21:51:46\n\nAudio\nID                                       : 2\nFormat                                   : AAC\nFormat/Info                              : Advanced Audio Codec\nFormat profile                           : LC\nCodec ID                                 : 40\nDuration                                 : 3mn 34s\nBit rate mode                            : Variable\nBit rate                                 : 192 Kbps\nMaximum bit rate                         : 204 Kbps\nChannel(s)                               : 2 channels\nChannel positions                        : Front: L R\nSampling rate                            : 44.1 KHz\nCompression mode                         : Lossy\nStream size                              : 4.90 MiB (9%)\nTitle                                    : IsoMedia File Produced by Google, 5-11-2011\nEncoded date                             : UTC 2013-08-17 21:51:46\nTagged date                              : UTC 2013-08-17 21:51:46\n\nShared By Sbyky\n[IMG]http://yuq.me/users/18/139/0aq32UMZvX.gif[/IMG]\n[IMG]http://yuq.me/users/18/139/bQg62viaEG.gif[/IMG]","torrent":{"xt":"urn:btih:c0aefdaf141ff63d6c1633a5d17c4d15b2959ef3","amp;dn":"Lady+Gaga+-+Applause+%5BMusic+Video%5D+720p+%5BSbyky%5D","amp;tr":["udp%3A%2F%2Ftracker.openbittorrent.com%3A80","udp%3A%2F%2Fopen.demonii.com%3A1337","udp%3A%2F%2Ftracker.coppersurfer.tk%3A6969","udp%3A%2F%2Fexodus.desync.com%3A6969"],"infoHash":"c0aefdaf141ff63d6c1633a5d17c4d15b2959ef3","infoHashBuffer":{"type":"Buffer","data":[192,174,253,175,20,31,246,61,108,22,51,165,209,124,77,21,178,149,158,243]},"announce":[],"urlList":[]}}